<svg xmlns="http://www.w3.org/2000/svg" viewBox="0 0 165.13 33.58"><defs><style>.cls-1{font-size:28px;font-family:UnBOffice-Bold, UnB Office;font-weight:700;}.cls-1,.cls-2{fill:#6733e7;}</style></defs><title>Asset 3</title><g id="Layer_2" data-name="Layer 2"><g id="Layer_1-2" data-name="Layer 1"><text class="cls-1" transform="translate(37.53 25.09)">Craigslist</text><path class="cls-2" d="M15.7,0A15.7,15.7,0,1,0,31.39,15.7,15.71,15.71,0,0,0,15.7,0Zm12,15.7a11.9,11.9,0,0,1-2.1,6.76l-7.91-6.85V3.9A12,12,0,0,1,27.67,15.7ZM13.73,27.5a11.85,11.85,0,0,1-5.2-2.23l5.2-4.51Zm3.93-6.69,5.18,4.48a11.91,11.91,0,0,1-5.18,2.21ZM13.73,3.9V15.56L5.8,22.43A12,12,0,0,1,13.73,3.9Z"/></g></g></svg>